<?xml version="1.0" encoding="UTF-8" standalone="no"?>
<svg width="254px" height="109px" viewBox="0 0 254 109" version="1.1" xmlns="http://www.w3.org/2000/svg" xmlns:xlink="http://www.w3.org/1999/xlink" xmlns:sketch="http://www.bohemiancoding.com/sketch/ns">
    <!-- Generator: Sketch 3.4.3 (16618) - http://www.bohemiancoding.com/sketch -->
    <title>logo-stem-new</title>
    <desc>Created with Sketch.</desc>
    <defs></defs>
    <g id="Page-1" stroke="none" stroke-width="1" fill="none" fill-rule="evenodd" sketch:type="MSPage">
        <g id="logo-stem-new" sketch:type="MSLayerGroup" fill="#FFFFFF">
            <path d="M54.49,37.39 C65.125,37.317 84.847,18.44 99.77,1.397 C99.2576811,0.963482593 98.7396355,0.536778408 98.216,0.117 C84.093,13.765 65.146,28.8 54.433,28.87 C43.207,28.946 25.093,14.427 10.948,0.158 C10.45,0.555 9.958,0.96 9.474,1.37 C23.834,18.8 42.864,37.466 54.49,37.39 L54.49,37.39 Z" id="Shape" sketch:type="MSShapeGroup"></path>
            <path d="M37.693,54.42 C37.618,43.784 18.731,24.07 1.683,9.155 C1.248,9.667 0.821,10.185 0.403,10.708 C14.057,24.825 29.098,43.765 29.176,54.478 C29.256,65.706 14.743,83.825 0.481,97.976 C0.881,98.473 1.285,98.964 1.697,99.45 C19.119,85.082 37.777,66.044 37.695,54.42 L37.693,54.42 Z" id="Shape" sketch:type="MSShapeGroup"></path>
            <path d="M71.31,54.038 C71.353,64.674 90.18,84.446 107.182,99.412 C107.617379,98.9014906 108.045423,98.384771 108.466,97.862 C94.856,83.707 79.873,64.72 79.83,54.006 C79.785,42.778 94.352,24.704 108.66,10.596 C108.263,10.099 107.86,9.606 107.45,9.119 C89.982,23.433 71.265,42.412 71.31,54.039 L71.31,54.038 Z" id="Shape" sketch:type="MSShapeGroup"></path>
            <path d="M54.808,70.985 C44.173,71.055 24.448,89.929 9.525,106.97 C10.035,107.405 10.553,107.83 11.078,108.25 C25.202,94.604 44.152,79.572 54.865,79.503 C66.092,79.429 84.202,93.951 98.345,108.223 C98.843,107.826 99.335,107.42 99.82,107.01 C85.46,89.578 66.434,70.91 54.808,70.985 L54.808,70.985 Z" id="Shape" sketch:type="MSShapeGroup"></path>
            <path d="M122.576,65.16 C124.876,66.755 127.826,67.994 131.368,67.994 C134.614,67.994 137.858,66.754 137.858,63.391 C137.858,55.781 121.042,56.725 121.042,44.865 C121.042,39.141 125.585,34.125 133.669,34.125 C137.679,34.125 141.043,35.012 143.169,36.073 L143.169,42.565 C140.099,40.971 136.972,40.085 133.903,40.085 C131.188,40.085 128.593,41.148 128.593,44.275 C128.593,51.415 145.409,50.47 145.409,62.802 C145.409,69.706 139.509,73.952 131.543,73.952 C127,73.952 122.751,72.656 119.801,70.592 L122.575,65.164 L122.576,65.16 Z M160.572,40.26 L149.242,40.26 L149.242,34.48 L179.926,34.48 L178.096,40.26 L167.654,40.26 L167.654,73.364 L160.574,73.364 L160.574,40.26 L160.572,40.26 Z M184.762,34.48 L206.24,34.48 L204.352,40.26 L191.842,40.26 L191.842,50.647 L204.292,50.647 L204.292,56.429 L191.842,56.429 L191.842,67.579 L206.3,67.579 L206.3,73.361 L184.76,73.361 L184.76,34.48 L184.762,34.48 Z M214.38,34.48 L220.812,34.48 L231.02,49.17 C232.376,51.177 233.38,52.652 234.265,54.187 L234.383,54.187 C235.380592,52.397857 236.443643,50.6460064 237.57,48.935 L246.892,34.479 L253.382,34.479 L253.382,73.362 L246.242,73.362 L246.242,51.412 C246.242,49.819 246.242,47.812 246.36,46.278 L246.243,46.278 C245.713,47.398 244.296,49.582 243.588,50.644 L235.918,62.564 L232.672,62.564 L224.175,50.348 C223.349,49.168 222.285,47.812 221.52,46.338 L221.402,46.338 C221.462,47.871 221.462,49.878 221.462,51.234 L221.462,73.361 L214.382,73.361 L214.382,34.48 L214.38,34.48 Z M119.912,83.534 L122.064,83.534 L122.064,97.707 L127.894,97.707 L127.894,99.473 L119.912,99.473 L119.912,83.533 L119.912,83.534 Z M129.535,83.534 L137.589,83.534 L136.959,85.3 L131.686,85.3 L131.686,90.428 L136.886,90.428 L136.886,92.218 L131.686,92.218 L131.686,97.708 L137.684,97.708 L137.684,99.473 L129.534,99.473 L129.534,83.533 L129.535,83.534 Z M144.575,83.486 L146.123,83.486 L152.313,99.472 L150.017,99.472 L148.445,95.288 L142.278,95.288 L140.73,99.472 L138.505,99.472 L144.575,83.486 L144.575,83.486 Z M147.767,93.523 L146.292,89.363 L145.396,86.703 L145.348,86.703 C145.178,87.283 144.912,88.033 144.428,89.388 L142.928,93.524 L147.768,93.524 L147.767,93.523 Z M153.76,83.533 L157.365,83.533 C158.985,83.533 160.075,83.823 160.895,84.308 C162.323,85.106 162.927,86.485 162.927,87.936 C162.927,90.136 161.717,91.516 159.735,92.12 L159.735,92.17 C160.219,92.435 160.825,93.306 161.671,94.732 L164.501,99.472 L161.987,99.472 L159.375,95.046 C158.625,93.716 158.021,92.99 157.562,92.869 L155.917,92.869 L155.917,99.469 L153.765,99.469 L153.765,83.535 L153.76,83.533 Z M157.34,91.103 C158.187,91.103 158.816,90.933 159.397,90.596 C160.195,90.16 160.703,89.314 160.703,88.154 C160.703,87.234 160.363,86.461 159.687,85.954 C159.204,85.591 158.477,85.3 157.365,85.3 L155.915,85.3 L155.915,91.105 L157.341,91.105 L157.34,91.103 Z M166.286,83.533 L168.366,83.533 L175.573,92.919 C176.328437,93.8818529 177.046308,94.8735958 177.725,95.892 L177.775,95.892 C177.725,95.022 177.725,94.247 177.725,93.112 L177.725,83.532 L179.855,83.532 L179.855,99.472 L177.992,99.472 L170.518,89.724 C169.792052,88.782906 169.090486,87.8232539 168.414,86.846 L168.364,86.846 C168.414,87.596 168.437,88.37 168.437,89.506 L168.437,99.471 L166.285,99.471 L166.285,83.531 L166.286,83.533 Z M182.993,83.533 L185.145,83.533 L185.145,99.473 L182.993,99.473 L182.993,83.533 L182.993,83.533 Z M188.287,83.533 L190.367,83.533 L197.574,92.919 C198.329437,93.8818529 199.047308,94.8735958 199.726,95.892 L199.776,95.892 C199.726,95.022 199.726,94.247 199.726,93.112 L199.726,83.532 L201.856,83.532 L201.856,99.472 L199.994,99.472 L192.519,89.724 C191.792704,88.7826835 191.090477,87.8230397 190.413,86.846 L190.363,86.846 C190.413,87.596 190.436,88.37 190.436,89.506 L190.436,99.471 L188.284,99.471 L188.284,83.531 L188.287,83.533 Z M217.67,98.48 C216.484,99.085 214.477,99.714 212.275,99.714 C207.365,99.714 204.245,96.401 204.245,91.757 C204.245,86.871 207.607,83.389 212.662,83.389 C214.5,83.389 216.072,83.823 217.088,84.234 L217.088,86.241 C215.752878,85.5684669 214.277935,85.2203735 212.783,85.225 C208.743,85.225 206.519,87.837 206.519,91.562 C206.519,95.432 208.814,97.874 212.466,97.874 C213.724,97.874 214.836,97.634 215.538,97.294 L215.538,91.88 L217.668,91.88 L217.668,98.48 L217.67,98.48 Z" id="Shape" fill-opacity="0.9" sketch:type="MSShapeGroup"></path>
        </g>
    </g>
</svg>