<?xml version="1.0" encoding="utf-8"?>
<!-- Generator: Adobe Illustrator 17.0.2, SVG Export Plug-In . SVG Version: 6.00 Build 0)  -->
<!DOCTYPE svg PUBLIC "-//W3C//DTD SVG 1.1//EN" "http://www.w3.org/Graphics/SVG/1.1/DTD/svg11.dtd" [
	<!ENTITY ns_extend "http://ns.adobe.com/Extensibility/1.0/">
	<!ENTITY ns_ai "http://ns.adobe.com/AdobeIllustrator/10.0/">
	<!ENTITY ns_graphs "http://ns.adobe.com/Graphs/1.0/">
	<!ENTITY ns_vars "http://ns.adobe.com/Variables/1.0/">
	<!ENTITY ns_imrep "http://ns.adobe.com/ImageReplacement/1.0/">
	<!ENTITY ns_sfw "http://ns.adobe.com/SaveForWeb/1.0/">
	<!ENTITY ns_custom "http://ns.adobe.com/GenericCustomNamespace/1.0/">
	<!ENTITY ns_adobe_xpath "http://ns.adobe.com/XPath/1.0/">
]>
<svg version="1.1" id="Layer_1" xmlns:x="&ns_extend;" xmlns:i="&ns_ai;" xmlns:graph="&ns_graphs;"
	 xmlns="http://www.w3.org/2000/svg" xmlns:xlink="http://www.w3.org/1999/xlink" x="0px" y="0px" width="867.712px"
	 height="283.953px" viewBox="0 0 867.712 283.953" enable-background="new 0 0 867.712 283.953" xml:space="preserve">
<metadata>
	<sfw  xmlns="&ns_sfw;">
		<slices></slices>
		<sliceSourceBounds  height="283.953" width="867.712" bottomLeftOrigin="true" x="156.725" y="-543.359"></sliceSourceBounds>
	</sfw>
</metadata>
<g>
	<g>
		<path d="M689.228,93.248c-0.439-0.588-0.894-1.146-1.371-1.682c-0.467-0.531-0.951-1.035-1.449-1.51
			c-0.496-0.471-1.014-0.924-1.533-1.336c-0.529-0.418-1.062-0.803-1.623-1.16c-0.541-0.357-1.105-0.68-1.676-0.982
			c-0.572-0.297-1.148-0.566-1.736-0.807c-0.584-0.246-1.184-0.457-1.791-0.643c-0.604-0.188-1.215-0.346-1.84-0.477
			c-0.631-0.125-1.258-0.227-1.893-0.299c-0.631-0.072-1.258-0.121-1.889-0.141c-0.625-0.018-1.25-0.012-1.869,0.02
			c-0.623,0.031-1.238,0.096-1.85,0.188L642.4,88.252l9.322,40.887l26.414-4.039c0.619-0.096,1.223-0.219,1.816-0.363
			c0.604-0.148,1.195-0.322,1.77-0.523c0.574-0.201,1.146-0.43,1.701-0.682c0.562-0.254,1.109-0.531,1.641-0.842
			c0.527-0.297,1.031-0.625,1.52-0.977c0.479-0.352,0.938-0.725,1.381-1.129c0.439-0.395,0.859-0.822,1.258-1.27
			c0.4-0.445,0.779-0.92,1.129-1.41c0.354-0.494,0.682-1.012,0.98-1.557c0.305-0.541,0.578-1.113,0.83-1.703
			c0.252-0.59,0.479-1.207,0.672-1.84c0.199-0.641,0.373-1.301,0.518-1.98c0.139-0.656,0.238-1.346,0.295-2.057
			c0.053-0.711,0.064-1.443,0.043-2.201c-0.031-0.756-0.1-1.537-0.213-2.338c-0.113-0.799-0.262-1.617-0.463-2.457
			c-0.199-0.838-0.426-1.646-0.678-2.422c-0.258-0.771-0.547-1.516-0.859-2.227c-0.32-0.715-0.666-1.393-1.041-2.035
			c-0.064-0.111-0.135-0.215-0.199-0.324l-0.002-0.001C689.917,94.233,689.581,93.723,689.228,93.248z"/>
		<g>
			<path d="M720.244,115.446c-0.031,0.193-0.053,0.389-0.086,0.581c-0.252,1.449-0.566,2.873-0.945,4.268
				c-0.377,1.396-0.81,2.764-1.315,4.096c-0.5,1.338-1.051,2.643-1.664,3.91c-0.615,1.27-1.287,2.508-2.016,3.711
				c-0.738,1.217-1.543,2.385-2.404,3.504c-0.869,1.127-1.797,2.203-2.787,3.232c-0.99,1.029-2.039,2.014-3.15,2.943
				c-1.107,0.932-2.273,1.812-3.504,2.646c-1.227,0.834-2.5,1.598-3.818,2.289c-1.32,0.691-2.678,1.312-4.074,1.857
				c-1.395,0.543-2.83,1.012-4.297,1.408c-1.473,0.395-2.977,0.709-4.514,0.955l-27.998,4.41l13.141,57.793
				c0.166,0.744,0.275,1.465,0.312,2.156c0.041,0.697,0.016,1.361-0.072,2.002c-0.092,0.643-0.242,1.256-0.465,1.842
				c-0.217,0.588-0.498,1.148-0.852,1.678c-0.342,0.537-0.74,1.021-1.184,1.457c-0.441,0.43-0.943,0.812-1.484,1.148
				c-0.543,0.33-1.137,0.608-1.785,0.838c-0.633,0.229-1.322,0.402-2.057,0.523l-7.676,1.295c-0.746,0.127-1.481,0.189-2.184,0.188
				c-0.707-0.006-1.385-0.066-2.035-0.199c-0.66-0.127-1.285-0.322-1.893-0.582c-0.604-0.254-1.186-0.578-1.734-0.963
				c-0.562-0.383-1.068-0.814-1.535-1.289c-0.459-0.475-0.875-0.998-1.234-1.564c-0.371-0.57-0.686-1.18-0.955-1.84
				c-0.266-0.66-0.477-1.365-0.648-2.109l-22.215-99.264l-7.783,54.687c-0.199,1.41-0.555,2.678-1.049,3.814
				c-0.508,1.135-1.154,2.127-1.936,2.975c-0.791,0.846-1.719,1.539-2.769,2.078c-1.053,0.537-2.24,0.912-3.541,1.125l-14.213,2.289
				c-1.311,0.215-2.584,0.229-3.801,0.059c-1.221-0.172-2.385-0.531-3.486-1.074c-1.098-0.541-2.137-1.264-3.084-2.164
				c-0.947-0.9-1.82-1.977-2.596-3.217l-30.732-49.443l20.773,97.328l0.385-0.064c0.625-0.105,1.215-0.25,1.781-0.441
				c0.562-0.188,1.092-0.416,1.59-0.686c0.5-0.268,0.963-0.58,1.396-0.928c0.434-0.354,0.834-0.738,1.195-1.164
				c5.695-6.66,11.385-13.32,17.078-19.98l12.025,55.343c0.143,0.676,0.338,1.311,0.572,1.906c0.244,0.59,0.516,1.143,0.842,1.658
				c0.33,0.512,0.699,0.982,1.115,1.408c0.414,0.428,0.873,0.816,1.371,1.158c0.5,0.344,1.021,0.631,1.568,0.865
				c0.547,0.229,1.111,0.398,1.701,0.514c0.59,0.117,1.207,0.172,1.84,0.172c0.637-0.006,1.293-0.065,1.979-0.184l6.936-1.205
				c0.486-0.088,0.949-0.197,1.393-0.33c0.16-0.05,0.301-0.119,0.455-0.175l245.59-47.606L720.244,115.446z"/>
			<path d="M513.148,80.766c0.565-0.309,1.176-0.572,1.83-0.781c0.656-0.207,1.363-0.363,2.109-0.475l19.617-2.771
				c0.707-0.098,1.402-0.15,2.07-0.15c0.668,0,1.31,0.047,1.932,0.143c0.619,0.092,1.223,0.24,1.791,0.434
				c0.574,0.191,1.121,0.432,1.646,0.717c0.484,0.273,0.953,0.576,1.396,0.91c0.447,0.328,0.869,0.691,1.275,1.078
				c0.4,0.395,0.777,0.811,1.133,1.266c0.361,0.447,0.699,0.928,1.012,1.438l41.143,69.76l8.871-76.893
				c0.072-0.561,0.186-1.1,0.33-1.613c0.143-0.52,0.316-1.016,0.521-1.488c0.211-0.475,0.451-0.928,0.721-1.354
				c0.272-0.428,0.58-0.842,0.92-1.225c0.355-0.408,0.758-0.781,1.207-1.117c0.441-0.332,0.938-0.627,1.469-0.885
				c0.529-0.26,1.102-0.477,1.717-0.654c0.615-0.178,1.275-0.32,1.969-0.416l34.58-4.889L552.746,0l-41.635,82.351
				c0.162-0.169,0.322-0.338,0.496-0.491C512.072,81.443,512.583,81.078,513.148,80.766z"/>
			<path d="M565.14,239.568c-0.014,0.013-0.029,0.023-0.041,0.035c-0.17,0.159-0.344,0.315-0.523,0.461
				c-0.039,0.03-0.08,0.057-0.119,0.086c-0.068,0.053-0.139,0.1-0.209,0.151c-0.178,0.129-0.359,0.253-0.547,0.37
				c-0.037,0.023-0.072,0.051-0.109,0.074c-0.051,0.03-0.109,0.055-0.16,0.085c-0.098,0.056-0.188,0.116-0.287,0.169
				c-0.092,0.047-0.189,0.087-0.281,0.131c-0.104,0.051-0.209,0.101-0.318,0.148c-0.174,0.078-0.355,0.15-0.537,0.22
				c-0.09,0.034-0.172,0.074-0.262,0.106c-0.047,0.016-0.098,0.027-0.143,0.043c-0.041,0.014-0.08,0.031-0.121,0.045
				c-0.147,0.047-0.299,0.085-0.449,0.127c-0.135,0.039-0.266,0.08-0.404,0.115c-0.33,0.083-0.67,0.156-1.021,0.217l-7.959,1.336
				c-0.766,0.131-1.508,0.191-2.223,0.191c-0.721,0-1.416-0.07-2.088-0.201c-0.668-0.133-1.318-0.328-1.935-0.59
				c-0.625-0.26-1.215-0.59-1.783-0.98c-0.565-0.391-1.082-0.824-1.545-1.307c-0.469-0.486-0.881-1.02-1.246-1.602
				c-0.369-0.578-0.682-1.199-0.941-1.875c-0.266-0.67-0.473-1.389-0.639-2.148l-5.674-27.095l0.002,0.001l-9.629-45.984
				l-4.635-22.138l-10.258-49.003c-0.15-0.73-0.238-1.439-0.26-2.119c-0.021-0.68,0.022-1.336,0.131-1.961
				c0.012-0.067,0.031-0.13,0.045-0.196c0.045-0.241,0.092-0.482,0.158-0.716c0.012-0.039,0.029-0.071,0.041-0.109
				c0.051-0.165,0.113-0.327,0.174-0.489c-9.004,17.735-17.586,34.637-26.598,52.397c-0.207,0.42-0.728,1.531-0.863,1.988
				c-0.131,0.453-0.348,1.354-0.398,1.842c-0.053,0.486-0.039,0.766-0.006,1.283c0.027,0.52,0.262,1.854,0.379,2.406l26.525,130.022
				c0.135,0.689,0.32,1.334,0.561,1.939c0.234,0.607,0.516,1.166,0.836,1.691c0.326,0.522,0.699,1,1.121,1.434
				c0.412,0.434,0.877,0.824,1.385,1.174c0.508,0.35,1.041,0.643,1.596,0.877c0.557,0.232,1.137,0.404,1.746,0.521
				c0.602,0.117,1.227,0.174,1.873,0.174c0.648-0.004,1.316-0.064,2.006-0.186l7.174-1.248c0.6-0.107,1.164-0.242,1.697-0.42
				c0.529-0.178,1.033-0.391,1.492-0.639c0.469-0.246,0.898-0.531,1.299-0.85c0.398-0.316,0.764-0.672,1.088-1.062
				c11.176-13.203,22.352-26.414,33.527-39.621c-0.199,0.236-0.412,0.458-0.637,0.67
				C565.144,239.563,565.142,239.566,565.14,239.568z"/>
		</g>
	</g>
	<g>
		<path d="M52.891,203.096c0.625-0.625,0.941-1.473,0.941-2.523v-58.168c0-1.047-0.316-1.895-0.941-2.521
			c-0.625-0.623-1.471-0.943-2.518-0.943h-8.258c-1.021,0-1.857,0.258-2.479,0.754c-0.586,0.486-1.033,1.135-1.328,1.939
			L27.26,174.318c-0.078,0.182-0.248,0.494-0.443,0.516c0,0-0.108-0.07-0.221-0.455l-11.08-32.762
			c-0.291-0.789-0.738-1.438-1.328-1.924c-0.621-0.496-1.449-0.754-2.47-0.754H3.459c-1.051,0-1.896,0.32-2.521,0.943
			C0.316,140.504,0,141.352,0,142.404v58.168c0,1.053,0.316,1.898,0.938,2.523c0.621,0.621,1.467,0.934,2.521,0.934h3.285
			c1.055,0,1.897-0.312,2.525-0.934c0.617-0.625,0.938-1.473,0.938-2.523v-43.438c0-0.229,0.018-0.385,0.035-0.486
			c0.061,0.066,0.135,0.174,0.204,0.328l9.483,26.748c0.711,1.932,2.092,2.957,3.988,2.957h6.002c1.893,0,3.268-1.025,3.984-2.963
			l9.477-26.736c0.052-0.149,0.101-0.246,0.135-0.311c0.061,0.07,0.104,0.205,0.104,0.463v43.438c0,1.053,0.316,1.898,0.945,2.523
			c0.621,0.621,1.467,0.934,2.518,0.934h3.289C51.42,204.029,52.274,203.717,52.891,203.096z"/>
		<path d="M67.815,204.029h3.29c1.05,0,1.901-0.312,2.526-0.934c0.62-0.625,0.938-1.473,0.938-2.523v-58.168
			c0-1.047-0.317-1.895-0.938-2.521c-0.635-0.623-1.48-0.943-2.526-0.943h-3.29c-1.045,0-1.896,0.32-2.517,0.943
			c-0.62,0.621-0.938,1.469-0.938,2.521v58.168c0,1.053,0.317,1.898,0.938,2.523C65.919,203.717,66.771,204.029,67.815,204.029z"/>
		<path d="M125.042,200.572v-2.816c0-1.053-0.316-1.895-0.941-2.52s-1.476-0.939-2.521-0.939H95.96
			c-0.264,0-0.286-0.027-0.286-0.293v-51.6c0-1.047-0.317-1.895-0.941-2.521c-0.625-0.623-1.472-0.943-2.521-0.943H88.93
			c-1.05,0-1.901,0.32-2.526,0.943c-0.62,0.621-0.938,1.469-0.938,2.521v58.168c0,1.053,0.317,1.898,0.938,2.523
			c0.625,0.621,1.477,0.934,2.526,0.934h32.649c1.051,0,1.896-0.312,2.521-0.934C124.726,202.471,125.042,201.625,125.042,200.572z"
			/>
		<path d="M168.672,194.297h-25.61c-0.268,0-0.291-0.027-0.291-0.293v-51.6c0-1.047-0.316-1.895-0.941-2.521
			c-0.625-0.623-1.471-0.943-2.525-0.943h-3.281c-1.046,0-1.896,0.32-2.521,0.943c-0.625,0.621-0.941,1.469-0.941,2.521v58.168
			c0,1.053,0.316,1.898,0.941,2.523c0.625,0.621,1.471,0.934,2.521,0.934h32.649c1.055,0,1.901-0.312,2.526-0.934
			c0.62-0.625,0.941-1.471,0.941-2.523v-2.816c0-1.053-0.321-1.895-0.941-2.52C170.573,194.611,169.722,194.297,168.672,194.297z"/>
		<path d="M183.102,204.029h32.84c1.051,0,1.896-0.312,2.518-0.934c0.629-0.625,0.945-1.471,0.945-2.523v-2.816
			c0-1.053-0.316-1.895-0.945-2.52c-0.621-0.625-1.473-0.939-2.518-0.939h-25.801c-0.266,0-0.291-0.027-0.291-0.293v-17.822
			c0-0.27,0.025-0.293,0.291-0.293h22.047c1.051,0,1.9-0.318,2.518-0.939c0.629-0.623,0.945-1.473,0.945-2.525v-2.812
			c0-1.049-0.316-1.898-0.945-2.523c-0.621-0.625-1.473-0.938-2.518-0.938h-22.047c-0.266,0-0.291-0.023-0.291-0.289v-16.889
			c0-0.27,0.025-0.291,0.291-0.291h23.926c1.047,0,1.896-0.316,2.518-0.941c0.621-0.625,0.938-1.475,0.938-2.518v-2.818
			c0-1.047-0.316-1.895-0.938-2.521c-0.625-0.623-1.477-0.943-2.518-0.943h-30.965c-1.047,0-1.896,0.32-2.521,0.943
			c-0.625,0.621-0.942,1.469-0.942,2.521v58.168c0,1.053,0.317,1.898,0.942,2.523C181.201,203.717,182.052,204.029,183.102,204.029z
			"/>
		<path d="M268.108,138.939h-3.295c-1.045,0-1.891,0.32-2.512,0.943c-0.625,0.621-0.941,1.469-0.941,2.521v38.84
			c0,0.117-0.014,0.186-0.017,0.209c-0.057-0.006-0.127-0.076-0.184-0.156l-22.797-39.684c-0.551-0.973-1.201-1.668-1.939-2.076
			c-0.717-0.393-1.611-0.598-2.656-0.598h-3.664c-1.041,0-1.891,0.32-2.516,0.943c-0.625,0.621-0.941,1.469-0.941,2.521v58.168
			c0,1.053,0.316,1.898,0.941,2.523c0.619,0.621,1.471,0.934,2.516,0.934h3.291c1.051,0,1.896-0.312,2.521-0.934
			c0.621-0.625,0.938-1.473,0.938-2.523v-41.375c0-0.135,0.018-0.303,0.043-0.336c0,0,0.096,0.051,0.252,0.285l23.83,41.758
			c0.617,1.014,1.189,1.748,1.771,2.264c0.65,0.574,1.506,0.861,2.547,0.861h2.812c1.045,0,1.897-0.312,2.522-0.934
			c0.625-0.625,0.937-1.473,0.937-2.523v-58.168c0-1.047-0.312-1.895-0.937-2.521C270.001,139.26,269.149,138.939,268.108,138.939z"
			/>
		<path d="M321.581,138.939h-3.285c-1.047,0-1.897,0.32-2.522,0.943c-0.621,0.621-0.937,1.469-0.937,2.521v38.84
			c0,0.117-0.014,0.186-0.014,0.209c-0.053-0.006-0.131-0.076-0.182-0.156l-22.803-39.684c-0.551-0.973-1.207-1.668-1.936-2.076
			c-0.721-0.393-1.613-0.598-2.66-0.598h-3.662c-1.047,0-1.893,0.32-2.521,0.943c-0.621,0.621-0.934,1.469-0.934,2.521v58.168
			c0,1.053,0.312,1.898,0.934,2.523c0.629,0.621,1.475,0.934,2.521,0.934h3.285c1.055,0,1.904-0.312,2.525-0.934
			c0.625-0.625,0.938-1.473,0.938-2.523v-41.375c0-0.135,0.014-0.303,0.047-0.336c0.006,0,0.096,0.051,0.248,0.285l23.834,41.758
			c0.609,1.014,1.19,1.748,1.772,2.264c0.647,0.574,1.502,0.861,2.539,0.861h2.812c1.051,0,1.9-0.312,2.525-0.934
			c0.625-0.625,0.938-1.473,0.938-2.523v-58.168c0-1.047-0.313-1.895-0.938-2.521C323.477,139.26,322.622,138.939,321.581,138.939z"
			/>
		<path d="M340.811,138.939h-3.281c-1.045,0-1.897,0.32-2.522,0.943c-0.621,0.621-0.941,1.469-0.941,2.521v58.168
			c0,1.053,0.32,1.898,0.941,2.523c0.621,0.621,1.467,0.934,2.522,0.934h3.281c1.055,0,1.904-0.312,2.525-0.934
			c0.625-0.625,0.941-1.473,0.941-2.523v-58.168c0-1.047-0.316-1.895-0.941-2.521C342.712,139.26,341.866,138.939,340.811,138.939z"
			/>
		<path d="M396.796,138.939h-3.285c-1.051,0-1.9,0.32-2.521,0.943c-0.625,0.621-0.945,1.469-0.945,2.521v40.342
			c0,3.568-1.072,6.582-3.207,8.951c-2.113,2.348-5.234,3.533-9.275,3.533c-4.039,0-7.17-1.185-9.277-3.533
			c-2.131-2.369-3.213-5.381-3.213-8.951v-40.342c0-1.047-0.312-1.895-0.938-2.521c-0.629-0.623-1.475-0.943-2.521-0.943h-3.285
			c-1.051,0-1.896,0.32-2.521,0.943c-0.625,0.621-0.941,1.469-0.941,2.521v40.342c0,3.264,0.572,6.303,1.688,9.02
			c1.129,2.73,2.727,5.088,4.758,7.021c2.014,1.93,4.435,3.457,7.195,4.549c2.756,1.084,5.803,1.637,9.057,1.637
			c3.252,0,6.303-0.553,9.062-1.637c2.752-1.092,5.178-2.619,7.195-4.549c2.027-1.934,3.629-4.297,4.748-7.021
			c1.119-2.723,1.688-5.756,1.688-9.02v-40.342c0-1.047-0.313-1.895-0.941-2.521C398.685,139.26,397.843,138.939,396.796,138.939z"
			/>
		<path d="M461.898,139.883c-0.631-0.623-1.477-0.943-2.521-0.943h-8.256c-1.027,0-1.861,0.258-2.482,0.754
			c-0.586,0.486-1.033,1.135-1.324,1.939l-11.049,32.686c-0.078,0.182-0.248,0.494-0.447,0.516c0,0-0.107-0.07-0.221-0.455
			l-11.086-32.762c-0.281-0.789-0.728-1.438-1.318-1.924c-0.621-0.496-1.449-0.754-2.475-0.754h-8.258
			c-1.047,0-1.897,0.32-2.518,0.943c-0.625,0.621-0.941,1.469-0.941,2.521v58.168c0,1.053,0.316,1.898,0.941,2.523
			c0.615,0.621,1.463,0.934,2.518,0.934h3.285c1.055,0,1.9-0.312,2.525-0.934c0.621-0.625,0.938-1.473,0.938-2.523v-43.438
			c0-0.229,0.018-0.385,0.039-0.486c0.06,0.066,0.135,0.174,0.203,0.328l9.48,26.748c0.711,1.932,2.096,2.957,3.982,2.957h6.008
			c1.889,0,3.264-1.025,3.985-2.963l9.482-26.736c0.047-0.149,0.096-0.246,0.135-0.311c0.057,0.07,0.104,0.205,0.104,0.463v43.438
			c0,1.053,0.316,1.898,0.941,2.523c0.621,0.621,1.467,0.934,2.521,0.934h3.287c1.049,0,1.9-0.312,2.521-0.934
			c0.625-0.625,0.941-1.473,0.941-2.523v-58.168C462.839,141.357,462.523,140.51,461.898,139.883z"/>
		<path d="M279.927,223.707c-1.68-1.771-3.715-3.197-6.029-4.227c-2.326-1.033-4.812-1.557-7.395-1.557h-19.709
			c-1.041,0-1.883,0.314-2.516,0.938c-0.621,0.621-0.938,1.475-0.938,2.525v58.164c0,1.053,0.316,1.902,0.938,2.522
			c0.625,0.625,1.475,0.943,2.516,0.943h3.291c1.041,0,1.893-0.318,2.525-0.943c0.621-0.619,0.938-1.473,0.938-2.522v-22.514
			c0-0.27,0.025-0.291,0.287-0.291h12.668c2.586,0,5.072-0.525,7.395-1.557c2.314-1.025,4.336-2.445,6.029-4.229
			c1.67-1.77,3.02-3.838,4.014-6.148c1.002-2.32,1.506-4.83,1.506-7.479c0-2.578-0.504-5.08-1.506-7.43
			C282.942,227.561,281.593,225.475,279.927,223.707z M274.409,241.518c-0.562,1.197-1.283,2.223-2.156,3.035
			c-0.863,0.811-1.865,1.426-2.973,1.834c-1.108,0.408-2.266,0.619-3.434,0.619h-12.012c-0.262,0-0.287-0.023-0.287-0.289v-18.766
			c0-0.266,0.025-0.287,0.287-0.287h12.012c1.16,0,2.314,0.203,3.434,0.613c1.107,0.408,2.1,1.027,2.973,1.838
			c0.873,0.818,1.594,1.834,2.156,3.033c0.547,1.197,0.83,2.605,0.83,4.185C275.239,238.914,274.956,240.322,274.409,241.518z"/>
		<path d="M330.604,223.168c-2.023-1.926-4.44-3.453-7.197-4.545c-2.756-1.088-5.803-1.643-9.061-1.643
			c-3.256,0-6.303,0.555-9.059,1.643c-2.752,1.092-5.172,2.619-7.191,4.545c-2.025,1.928-3.623,4.289-4.756,7.024
			c-1.125,2.73-1.688,5.762-1.688,9.017v22.518c0,3.26,0.562,6.293,1.688,9.02c1.123,2.729,2.725,5.09,4.752,7.027
			c2.023,1.922,4.443,3.451,7.195,4.539c2.756,1.092,5.807,1.641,9.059,1.641c3.254,0,6.305-0.549,9.061-1.641
			c2.758-1.088,5.174-2.617,7.201-4.539c2.027-1.938,3.623-4.305,4.748-7.027c1.119-2.73,1.691-5.766,1.691-9.02v-22.518
			c0-3.25-0.572-6.285-1.691-9.017C334.231,227.457,332.63,225.096,330.604,223.168z M326.837,261.727
			c0,3.568-1.076,6.578-3.207,8.947c-2.113,2.346-5.244,3.539-9.283,3.539c-4.041,0-7.162-1.193-9.271-3.539
			c-2.135-2.367-3.207-5.377-3.207-8.947v-22.518c0-3.568,1.072-6.58,3.207-8.949c2.109-2.346,5.23-3.539,9.271-3.539
			c4.039,0,7.164,1.193,9.283,3.539c2.131,2.373,3.207,5.381,3.207,8.949V261.727z"/>
		<path d="M352.907,217.924h-3.281c-1.047,0-1.893,0.314-2.521,0.938c-0.625,0.621-0.941,1.475-0.941,2.525v58.164
			c0,1.053,0.316,1.902,0.941,2.522c0.625,0.625,1.471,0.943,2.521,0.943h3.281c1.051,0,1.896-0.318,2.525-0.943
			c0.625-0.619,0.941-1.473,0.941-2.522v-58.164c0-1.047-0.316-1.898-0.945-2.525C354.804,218.238,353.952,217.924,352.907,217.924z
			"/>
		<path d="M407.325,217.924h-3.281c-1.051,0-1.896,0.314-2.525,0.938c-0.621,0.621-0.941,1.475-0.941,2.525v38.84
			c0,0.117-0.014,0.184-0.017,0.207c-0.043-0.002-0.127-0.074-0.182-0.158l-22.795-39.68c-0.555-0.977-1.201-1.674-1.939-2.08
			c-0.725-0.398-1.619-0.592-2.66-0.592h-3.658c-1.047,0-1.893,0.314-2.522,0.938c-0.621,0.621-0.934,1.475-0.934,2.525v58.164
			c0,1.053,0.312,1.902,0.934,2.522c0.625,0.625,1.471,0.943,2.522,0.943h3.285c1.055,0,1.897-0.318,2.525-0.943
			c0.621-0.619,0.938-1.473,0.938-2.522v-41.375c0-0.109,0.014-0.295,0.043-0.33c0,0,0.105,0.043,0.248,0.277l23.84,41.76
			c0.602,1.014,1.184,1.754,1.77,2.273c0.652,0.568,1.506,0.859,2.539,0.859h2.812c1.051,0,1.896-0.318,2.521-0.943
			c0.625-0.619,0.941-1.473,0.941-2.522v-58.164c0-1.047-0.316-1.898-0.941-2.525C409.218,218.238,408.372,217.924,407.325,217.924z
			"/>
		<path d="M460.915,217.924h-38.934c-1.047,0-1.896,0.314-2.525,0.938c-0.625,0.627-0.943,1.475-0.943,2.525v2.814
			c0,1.051,0.318,1.898,0.943,2.518c0.615,0.625,1.471,0.945,2.525,0.945h14.07c0.266,0,0.291,0.021,0.291,0.287v51.6
			c0,1.053,0.312,1.902,0.941,2.522c0.625,0.625,1.477,0.943,2.522,0.943h3.285c1.047,0,1.889-0.318,2.522-0.943
			c0.621-0.619,0.943-1.473,0.943-2.522v-51.6c0-0.266,0.021-0.287,0.289-0.287h14.07c1.051,0,1.896-0.32,2.521-0.945
			c0.625-0.619,0.943-1.471,0.943-2.518v-2.814c0-1.047-0.318-1.898-0.947-2.525C462.808,218.238,461.958,217.924,460.915,217.924z"
			/>
	</g>
</g>
</svg>
